<svg width="95" height="75" viewBox="0 0 95 75" fill="none" xmlns="http://www.w3.org/2000/svg">
    <path d="M0 8.09932C0 3.94128 3.84826 0.851192 7.90817 1.7492L25.7823 5.70276C26.2436 5.80478 26.7145 5.85624 27.1869 5.85624H87.5565C91.1483 5.85624 94.0601 8.768 94.0601 12.3598V68.4964C94.0601 72.0882 91.1483 75 87.5565 75H6.5036C2.91176 75 0 72.0882 0 68.4964V8.09932Z"
          fill="#CCCCCC" fill-opacity="0.752941"/>
    <path d="M0 7.24784C0 4.85328 1.94117 2.91211 4.33573 2.91211H21.8402C22.6935 2.91211 23.5278 3.16389 24.2386 3.6359L39.0343 13.4606C39.7451 13.9326 40.5794 14.1844 41.4327 14.1844H89.802C92.1966 14.1844 94.1378 12.2432 94.1378 9.84867V2.91211V70.1886C94.1378 72.5832 92.1966 74.5244 89.802 74.5244H4.33574C1.94118 74.5244 0 72.5832 0 70.1886V7.24784Z"
          fill="#24292F"/>
    <path d="M46.4475 31.0014C46.6322 31.0881 46.7892 31.2301 46.8995 31.4099C47.0097 31.5898 47.0684 31.7999 47.0685 32.0145V56.3836C47.0686 56.5984 47.01 56.8085 46.8998 56.9885C46.7897 57.1685 46.6327 57.3106 46.448 57.3974C46.2632 57.4843 46.0587 57.5122 45.8594 57.4777C45.66 57.4433 45.4744 57.3479 45.325 57.2033L37.9832 50.1068H34.2185C33.5737 50.1068 32.9554 49.8345 32.4995 49.3497C32.0435 48.865 31.7874 48.2076 31.7874 47.5222V40.876C31.7874 39.4493 32.8765 38.2914 34.2185 38.2914H37.9832L45.325 31.1949C45.4747 31.051 45.6604 30.9564 45.8595 30.9223C46.0587 30.8882 46.2629 30.9162 46.4475 31.0029V31.0014ZM44.9847 34.5179L39.0876 40.2188C38.8958 40.4046 38.6455 40.5073 38.386 40.5068H34.2185C34.1264 40.5068 34.038 40.5457 33.9729 40.615C33.9078 40.6842 33.8712 40.7781 33.8712 40.876V47.5222C33.8712 47.726 34.0268 47.8914 34.2185 47.8914H38.386C38.6458 47.8914 38.8959 47.9933 39.0876 48.1794L44.9847 53.8803V34.5179ZM56.401 32.7116C56.5964 32.5042 56.8612 32.3877 57.1373 32.3877C57.4134 32.3877 57.6782 32.5042 57.8735 32.7116C63.8415 39.0565 63.8415 49.3417 57.8735 55.6865C57.676 55.8822 57.4148 55.9887 57.1449 55.9837C56.875 55.9786 56.6174 55.8623 56.4265 55.6594C56.2356 55.4565 56.1263 55.1827 56.1215 54.8957C56.1168 54.6087 56.217 54.331 56.401 54.121C57.6267 52.8181 58.599 51.2713 59.2623 49.5689C59.9256 47.8665 60.2671 46.0418 60.2671 44.1991C60.2671 42.3564 59.9256 40.5317 59.2623 38.8293C58.599 37.1269 57.6267 35.5801 56.401 34.2772C56.2059 34.0695 56.0963 33.788 56.0963 33.4944C56.0963 33.2009 56.2059 32.9193 56.401 32.7116Z"
          fill="white"/>
    <path d="M52.9632 37.9329C52.8664 37.83 52.7515 37.7484 52.6251 37.6927C52.4986 37.6371 52.3631 37.6084 52.2262 37.6084C52.0894 37.6084 51.9539 37.6371 51.8274 37.6927C51.701 37.7484 51.5861 37.83 51.4893 37.9329C51.3925 38.0358 51.3157 38.158 51.2634 38.2924C51.211 38.4268 51.184 38.5709 51.184 38.7164C51.184 38.862 51.211 39.006 51.2634 39.1405C51.3157 39.2749 51.3925 39.3971 51.4893 39.4999C52.0698 40.1171 52.5303 40.8498 52.8444 41.6561C53.1586 42.4625 53.3203 43.3267 53.3203 44.1995C53.3203 45.0723 53.1586 45.9365 52.8444 46.7429C52.5303 47.5492 52.0698 48.2819 51.4893 48.899C51.3052 49.109 51.2051 49.3867 51.2098 49.6737C51.2146 49.9607 51.3239 50.2345 51.5148 50.4374C51.7057 50.6404 51.9632 50.7566 52.2332 50.7617C52.5031 50.7667 52.7643 50.6602 52.9618 50.4646C54.5248 48.8027 55.4029 46.5489 55.4029 44.1988C55.4029 41.8486 54.5262 39.5948 52.9632 37.9329Z"
          fill="white"/>
</svg>
