<svg width="185" height="147" viewBox="0 0 185 147" fill="none" xmlns="http://www.w3.org/2000/svg">
    <path d="M0 14.3417C0 6.97894 6.81424 1.50723 14.0033 3.09736L50.5939 11.1908C51.4106 11.3714 52.2445 11.4626 53.081 11.4626H172.59C178.95 11.4626 184.106 16.6185 184.106 22.9787V135.283C184.106 141.643 178.95 146.799 172.59 146.799H11.5161C5.15595 146.799 0 141.643 0 135.283V14.3417Z"
          fill="#CCCCCC" fill-opacity="0.752941"/>
    <path d="M0 13.3791C0 9.13895 3.4373 5.70166 7.67742 5.70166H42.9925C44.5034 5.70166 45.9808 6.14749 47.2395 6.9833L76.6061 26.4836C77.8648 27.3194 79.3422 27.7652 80.8531 27.7652H176.581C180.821 27.7652 184.258 24.3279 184.258 20.0878V5.70166V138.193C184.258 142.433 180.821 145.87 176.581 145.87H7.6774C3.43728 145.87 0 142.433 0 138.193V13.3791Z"
          fill="#24292F"/>
    <g clip-path="url(#clip0_301_374)">
        <path d="M59.5005 64.7384C59.5005 62.1117 61.6323 59.98 64.2589 59.98H120C122.627 59.98 124.759 62.1117 124.759 64.7384V104.165C124.759 105.427 124.257 106.637 123.365 107.53C122.472 108.422 121.262 108.924 120 108.924H64.2589C62.9969 108.924 61.7866 108.422 60.8942 107.53C60.0018 106.637 59.5005 105.427 59.5005 104.165V64.7384ZM64.2589 64.0586C64.0786 64.0586 63.9057 64.1302 63.7782 64.2577C63.6507 64.3852 63.5791 64.5581 63.5791 64.7384V104.165C63.5791 104.54 63.8837 104.845 64.2589 104.845H120C120.18 104.845 120.353 104.773 120.481 104.646C120.608 104.518 120.68 104.345 120.68 104.165V64.7384C120.68 64.5581 120.608 64.3852 120.481 64.2577C120.353 64.1302 120.18 64.0586 120 64.0586H64.2589Z"
              fill="white"/>
        <path d="M83.9722 94.1973V74.7069C83.9726 74.463 84.0386 74.2238 84.1632 74.0142C84.2879 73.8046 84.4666 73.6324 84.6807 73.5156C84.8948 73.3988 85.1363 73.3418 85.38 73.3505C85.6237 73.3591 85.8606 73.4332 86.0659 73.5649L101.227 83.3074C101.419 83.4304 101.577 83.5997 101.687 83.7997C101.796 83.9997 101.854 84.2241 101.854 84.4521C101.854 84.6801 101.796 84.9044 101.687 85.1045C101.577 85.3045 101.419 85.4738 101.227 85.5968L86.0659 95.342C85.8606 95.4737 85.6237 95.5478 85.38 95.5564C85.1363 95.5651 84.8948 95.5081 84.6807 95.3913C84.4666 95.2745 84.2879 95.1023 84.1632 94.8927C84.0386 94.6831 83.9726 94.4439 83.9722 94.2V94.1973Z"
              fill="white"/>
    </g>
    <defs>
        <clipPath id="clip0_301_374">
            <rect width="65.2581" height="65.2581" fill="white" transform="translate(59.5002 51.8228)"/>
        </clipPath>
    </defs>
</svg>
