<svg width="185" height="147" viewBox="0 0 185 147" fill="none" xmlns="http://www.w3.org/2000/svg">
    <path d="M0 14.3417C0 6.97894 6.81424 1.50723 14.0033 3.09736L50.5939 11.1908C51.4106 11.3714 52.2445 11.4626 53.081 11.4626H172.59C178.95 11.4626 184.106 16.6185 184.106 22.9787V135.283C184.106 141.643 178.95 146.799 172.59 146.799H11.5161C5.15595 146.799 0 141.643 0 135.283V14.3417Z"
          fill="#CCCCCC" fill-opacity="0.752941"/>
    <path d="M0 13.6774C0 9.43729 3.4373 6 7.67742 6H42.9925C44.5034 6 45.9808 6.44583 47.2395 7.28164L76.6061 26.7819C77.8648 27.6177 79.3422 28.0635 80.8531 28.0635H176.581C180.821 28.0635 184.258 24.6262 184.258 20.3861V6V138.491C184.258 142.731 180.821 146.168 176.581 146.168H7.6774C3.43728 146.168 0 142.731 0 138.491V13.6774Z"
          fill="#24292F"/>
    <path d="M97.2083 73.521C97.2083 73.0403 97.0173 72.5793 96.6774 72.2394C96.3375 71.8995 95.8765 71.7085 95.3958 71.7085C94.915 71.7085 94.454 71.8995 94.1141 72.2394C93.7742 72.5793 93.5833 73.0403 93.5833 73.521V86.8127C93.5833 87.4652 93.9313 88.0645 94.4968 88.3859L102.955 93.2192C103.371 93.4443 103.859 93.4975 104.314 93.3676C104.769 93.2377 105.156 92.9349 105.391 92.524C105.625 92.113 105.69 91.6266 105.571 91.1685C105.452 90.7105 105.158 90.3172 104.753 90.0727L97.2083 85.7614V73.521Z"
          fill="white"/>
    <path d="M96.0001 58.4165C110.681 58.4165 122.583 70.3186 122.583 84.9998C122.583 99.6811 110.681 111.583 96.0001 111.583C81.3188 111.583 69.4167 99.6811 69.4167 84.9998C69.4167 70.3186 81.3188 58.4165 96.0001 58.4165ZM73.0417 84.9998C73.0417 91.0888 75.4606 96.9283 79.7661 101.234C84.0716 105.539 89.9112 107.958 96.0001 107.958C102.089 107.958 107.929 105.539 112.234 101.234C116.54 96.9283 118.958 91.0888 118.958 84.9998C118.958 78.9109 116.54 73.0714 112.234 68.7658C107.929 64.4603 102.089 62.0415 96.0001 62.0415C89.9112 62.0415 84.0716 64.4603 79.7661 68.7658C75.4606 73.0714 73.0417 78.9109 73.0417 84.9998Z"
          fill="white"/>
</svg>
