<svg width="95" height="75" viewBox="0 0 95 75" fill="none" xmlns="http://www.w3.org/2000/svg">
    <path d="M-6.10352e-05 7.74908C-6.10352e-05 3.77085 3.68179 0.814384 7.56614 1.67356L25.8123 5.7094C26.2536 5.807 26.7042 5.85624 27.1561 5.85624H87.8376C91.2742 5.85624 94.06 8.64209 94.06 12.0786V68.7776C94.06 72.2142 91.2742 75 87.8376 75H6.2223C2.78579 75 -6.10352e-05 72.2142 -6.10352e-05 68.7776V7.74908Z"
          fill="#CCCCCC" fill-opacity="0.752941"/>
    <path d="M-6.10352e-05 7.06132C-6.10352e-05 4.77031 1.85717 2.91309 4.14818 2.91309H21.8967C22.7131 2.91309 23.5113 3.15397 24.1914 3.60558L39.0814 13.4929C39.7615 13.9445 40.5597 14.1854 41.3761 14.1854H89.9895C92.2805 14.1854 94.1377 12.3282 94.1377 10.0371V2.91309V70.3771C94.1377 72.6681 92.2805 74.5254 89.9895 74.5254H4.14818C1.85717 74.5254 -6.10352e-05 72.6681 -6.10352e-05 70.3771V7.06132Z"
          fill="#24292F"/>
    <g clip-path="url(#clip0_302_566)">
        <path d="M19.6123 46.334C19.7496 46.3339 19.8842 46.3722 20.0008 46.4447C20.1174 46.5171 20.2114 46.6208 20.2722 46.7439L23.2709 52.8207L29.9772 53.7954C30.1129 53.8153 30.2404 53.8727 30.3452 53.9611C30.4499 54.0496 30.5279 54.1656 30.5702 54.2961C30.6126 54.4265 30.6176 54.5662 30.5847 54.6994C30.5518 54.8325 30.4824 54.9538 30.3842 55.0496L25.5322 59.779L26.6775 66.4579C26.7004 66.5931 26.6851 66.7319 26.6333 66.8589C26.5815 66.9858 26.4953 67.0957 26.3844 67.1764C26.2736 67.257 26.1424 67.305 26.0057 67.3151C25.869 67.3252 25.7321 67.297 25.6106 67.2335L19.6123 64.0799L13.6139 67.2335C13.4925 67.2973 13.3557 67.3258 13.2189 67.3159C13.0822 67.306 12.9509 67.2581 12.8399 67.1775C12.729 67.0969 12.6427 66.987 12.591 66.86C12.5392 66.733 12.524 66.5941 12.547 66.4589L13.6924 59.779L8.84037 55.0496C8.74189 54.9538 8.6722 54.8323 8.6392 54.699C8.60621 54.5656 8.61123 54.4257 8.65369 54.295C8.69615 54.1644 8.77436 54.0482 8.87945 53.9597C8.98455 53.8713 9.11232 53.814 9.2483 53.7944L15.9537 52.8207L18.9533 46.7439C19.014 46.6209 19.1079 46.5174 19.2243 46.4449C19.3408 46.3725 19.4751 46.3341 19.6123 46.334ZM19.6123 48.7316L17.1019 53.8179C17.0491 53.9248 16.9711 54.0173 16.8745 54.0873C16.778 54.1574 16.6659 54.2029 16.5479 54.22L10.934 55.0358L14.9966 58.9955C15.082 59.0787 15.1459 59.1815 15.1826 59.295C15.2193 59.4084 15.2279 59.5291 15.2074 59.6466L14.2484 65.238L19.2701 62.5982C19.3756 62.5428 19.493 62.5138 19.6123 62.5138C19.7315 62.5138 19.849 62.5428 19.9545 62.5982L24.9752 65.238L24.0171 59.6466C23.9967 59.5291 24.0052 59.4084 24.042 59.295C24.0787 59.1815 24.1425 59.0787 24.228 58.9955L28.2906 55.0358L22.6767 54.221C22.5586 54.2039 22.4465 54.1584 22.35 54.0883C22.2535 54.0183 22.1755 53.9258 22.1226 53.8189L19.6123 48.7316Z"
              fill="white"/>
    </g>
    <defs>
        <clipPath id="clip0_302_566">
            <rect width="23.5344" height="23.5344" fill="white" transform="translate(7.84479 46.0884)"/>
        </clipPath>
    </defs>
</svg>
