<svg width="95" height="75" viewBox="0 0 95 75" fill="none" xmlns="http://www.w3.org/2000/svg">
    <rect y="0.0297852" width="94.06" height="74.9702" rx="6.5036" fill="#CCCCCC" fill-opacity="0.752941"/>
    <path d="M0 4.33573C0 1.94117 1.94117 0 4.33573 0H21.7692C22.6548 0 23.5191 0.271196 24.246 0.777114L38.9746 11.0284C39.7015 11.5344 40.5659 11.8056 41.4515 11.8056H89.7242C92.1188 11.8056 94.06 9.86438 94.06 7.46982V0V70.6643C94.06 73.0588 92.1188 75 89.7242 75H4.33573C1.94117 75 0 73.0588 0 70.6643V4.33573Z"
          fill="#24292F"/>
    <path d="M33.64 24.5146H60.4975C62.2868 24.5146 63.739 25.9668 63.739 27.7561V54.6136C63.739 55.4733 63.3975 56.2978 62.7896 56.9057C62.1817 57.5136 61.3572 57.8551 60.4975 57.8551H33.64C32.7803 57.8551 31.9558 57.5136 31.348 56.9057C30.7401 56.2978 30.3986 55.4733 30.3986 54.6136V27.7561C30.3986 25.9668 31.8507 24.5146 33.64 24.5146ZM60.4975 27.293H33.64C33.5172 27.293 33.3994 27.3418 33.3126 27.4286C33.2257 27.5155 33.1769 27.6333 33.1769 27.7561V54.6136C33.1769 54.8692 33.3844 55.0767 33.64 55.0767H33.9919L52.1865 36.8821C52.4875 36.5811 52.8449 36.3423 53.2382 36.1794C53.6314 36.0164 54.053 35.9326 54.4787 35.9326C54.9044 35.9326 55.3259 36.0164 55.7192 36.1794C56.1125 36.3423 56.4698 36.5811 56.7708 36.8821L60.9606 41.0719V27.7561C60.9606 27.6333 60.9118 27.5155 60.825 27.4286C60.7381 27.3418 60.6204 27.293 60.4975 27.293ZM60.9606 45.0005L54.8056 38.8455C54.7626 38.8023 54.7115 38.7681 54.6552 38.7448C54.599 38.7214 54.5387 38.7094 54.4777 38.7094C54.4168 38.7094 54.3565 38.7214 54.3003 38.7448C54.244 38.7681 54.1929 38.8023 54.1499 38.8455L37.9205 55.0767H60.4975C60.6204 55.0767 60.7381 55.0279 60.825 54.9411C60.9118 54.8542 60.9606 54.7364 60.9606 54.6136V45.0005ZM40.5859 39.3326C39.3578 39.3326 38.18 38.8447 37.3116 37.9763C36.4432 37.1079 35.9553 35.9301 35.9553 34.702C35.9553 33.4739 36.4432 32.2961 37.3116 31.4277C38.18 30.5593 39.3578 30.0714 40.5859 30.0714C41.814 30.0714 42.9918 30.5593 43.8602 31.4277C44.7287 32.2961 45.2165 33.4739 45.2165 34.702C45.2165 35.9301 44.7287 37.1079 43.8602 37.9763C42.9918 38.8447 41.814 39.3326 40.5859 39.3326ZM40.5859 36.5542C41.0772 36.5542 41.5483 36.3591 41.8956 36.0117C42.243 35.6644 42.4382 35.1932 42.4382 34.702C42.4382 34.2108 42.243 33.7396 41.8956 33.3923C41.5483 33.0449 41.0772 32.8498 40.5859 32.8498C40.0947 32.8498 39.6235 33.0449 39.2762 33.3923C38.9288 33.7396 38.7337 34.2108 38.7337 34.702C38.7337 35.1932 38.9288 35.6644 39.2762 36.0117C39.6235 36.3591 40.0947 36.5542 40.5859 36.5542Z"
          fill="white"/>
</svg>
