<svg width="95" height="75" viewBox="0 0 95 75" fill="none" xmlns="http://www.w3.org/2000/svg">
    <path d="M0 14.3417C0 6.97895 6.81424 1.50723 14.0033 3.09736L25.2475 5.58447C26.0642 5.76511 26.8982 5.85624 27.7347 5.85624H82.5439C88.9041 5.85624 94.0601 11.0122 94.0601 17.3724V63.4839C94.0601 69.8441 88.9041 75 82.5439 75H11.5161C5.15595 75 0 69.8441 0 63.4839V14.3417Z"
          fill="#CCCCCC" fill-opacity="0.752941"/>
    <path d="M-6.10352e-05 10.7428C-6.10352e-05 6.50272 3.43724 3.06543 7.67736 3.06543H20.8317C22.3426 3.06543 23.82 3.51126 25.0787 4.34707L38.1941 13.0561C39.4528 13.8919 40.9302 14.3377 42.4411 14.3377H86.4603C90.7004 14.3377 94.1377 10.9004 94.1377 6.66031V3.06543V67.0003C94.1377 71.2404 90.7004 74.6777 86.4603 74.6777H7.67737C3.43725 74.6777 -6.10352e-05 71.2404 -6.10352e-05 67.0003V10.7428Z"
          fill="#24292F"/>
    <path d="M49.6639 37.5618C49.6639 37.3162 49.5663 37.0806 49.3927 36.907C49.219 36.7333 48.9835 36.6357 48.7379 36.6357C48.4923 36.6357 48.2568 36.7333 48.0831 36.907C47.9095 37.0806 47.8119 37.3162 47.8119 37.5618V44.3525C47.8119 44.6859 47.9897 44.9921 48.2786 45.1563L52.6 47.6256C52.8127 47.7406 53.0619 47.7678 53.2945 47.7014C53.527 47.635 53.7243 47.4803 53.8443 47.2704C53.9642 47.0605 53.9973 46.8119 53.9365 46.5779C53.8756 46.3439 53.7256 46.143 53.5186 46.0181L49.6639 43.8154V37.5618Z"
          fill="white"/>
    <path d="M49.0466 29.8452C56.5472 29.8452 62.628 35.926 62.628 43.4267C62.628 50.9274 56.5472 57.0082 49.0466 57.0082C41.5459 57.0082 35.4651 50.9274 35.4651 43.4267C35.4651 35.926 41.5459 29.8452 49.0466 29.8452ZM37.3171 43.4267C37.3171 46.5375 38.5529 49.521 40.7526 51.7207C42.9523 53.9204 45.9357 55.1561 49.0466 55.1561C52.1574 55.1561 55.1408 53.9204 57.3405 51.7207C59.5402 49.521 60.776 46.5375 60.776 43.4267C60.776 40.3158 59.5402 37.3324 57.3405 35.1327C55.1408 32.933 52.1574 31.6972 49.0466 31.6972C45.9357 31.6972 42.9523 32.933 40.7526 35.1327C38.5529 37.3324 37.3171 40.3158 37.3171 43.4267Z"
          fill="white"/>
</svg>
