<svg width="82" height="75" viewBox="0 0 82 75" fill="none" xmlns="http://www.w3.org/2000/svg">
    <path d="M0 0H81.7813L73.4718 68.554C73.0258 72.2331 69.9032 75 66.1973 75H15.6354C11.9315 75 8.80999 72.2361 8.36158 68.5594L0 0Z"
          fill="#0A0A0A"/>
    <path d="M0 0H81.7813L64.1994 64.2142C63.3274 67.3987 60.4335 69.6068 57.1318 69.6068H14.9072C11.2002 69.6068 8.0771 66.8384 7.63236 63.1582L0 0Z"
          fill="#24292F"/>
    <path d="M26.8228 39.7898C27.0322 39.7647 27.2445 39.7811 27.4476 39.8382C27.6507 39.8952 27.8405 39.9916 28.0063 40.1221C28.172 40.2525 28.3105 40.4144 28.4137 40.5984C28.5169 40.7824 28.5829 40.9849 28.6078 41.1944C28.8806 43.4511 29.8004 45.5807 31.2563 47.3259C32.7121 49.0712 34.6418 50.3577 36.8124 51.03C38.9829 51.7024 41.3016 51.7319 43.4886 51.115C45.6756 50.4981 47.6373 49.2612 49.1371 47.5535L46.5603 44.9756C46.4852 44.9008 46.4341 44.8053 46.4134 44.7013C46.3927 44.5974 46.4033 44.4896 46.4438 44.3917C46.4844 44.2937 46.5531 44.2101 46.6413 44.1513C46.7295 44.0925 46.8331 44.0612 46.9391 44.0614H54.7424C54.8843 44.0614 55.0204 44.1178 55.1208 44.2181C55.2211 44.3185 55.2775 44.4547 55.2775 44.5966V52.4032C55.2777 52.5092 55.2464 52.6128 55.1876 52.701C55.1289 52.7892 55.0452 52.858 54.9473 52.8986C54.8494 52.9392 54.7417 52.9498 54.6378 52.929C54.5339 52.9083 54.4384 52.8572 54.3636 52.7821L51.4101 49.8274C49.4822 51.9589 46.9825 53.4911 44.2087 54.2413C41.4349 54.9915 38.504 54.9282 35.7651 54.0588C33.0263 53.1894 30.5951 51.5506 28.7611 49.3378C26.9271 47.1249 25.7677 44.4312 25.421 41.5777C25.3959 41.3682 25.4123 41.1558 25.4693 40.9527C25.5263 40.7495 25.6227 40.5596 25.7531 40.3938C25.8835 40.2279 26.0453 40.0894 26.2292 39.9862C26.4131 39.8829 26.6156 39.8169 26.825 39.792L26.8228 39.7898ZM40.2957 28.003C38.6221 28.0012 36.9674 28.3574 35.4425 29.0475C33.9177 29.7377 32.5579 30.746 31.4544 32.0047L34.0312 34.5826C34.1062 34.6575 34.1574 34.753 34.1781 34.8569C34.1988 34.9609 34.1882 35.0687 34.1476 35.1666C34.1071 35.2645 34.0383 35.3482 33.9502 35.407C33.862 35.4658 33.7584 35.4971 33.6524 35.4969H25.849C25.7071 35.4969 25.571 35.4405 25.4707 35.3401C25.3703 35.2397 25.314 35.1036 25.314 34.9616V27.1551C25.3138 27.0491 25.3451 26.9454 25.4038 26.8572C25.4626 26.769 25.5463 26.7003 25.6441 26.6597C25.742 26.6191 25.8498 26.6085 25.9537 26.6292C26.0576 26.6499 26.153 26.7011 26.2279 26.7761L29.1814 29.7309C31.1092 27.5993 33.609 26.0672 36.3828 25.3169C39.1566 24.5667 42.0875 24.6301 44.8263 25.4995C47.5652 26.3689 49.9964 28.0076 51.8304 30.2205C53.6644 32.4334 54.8238 35.127 55.1705 37.9806C55.221 38.4036 55.1015 38.8295 54.8382 39.1643C54.5749 39.4992 54.1894 39.7157 53.7665 39.7663C53.3436 39.8168 52.918 39.6972 52.5832 39.4338C52.2485 39.1704 52.032 38.7848 51.9815 38.3617C51.6353 35.5049 50.2554 32.8738 48.1024 30.9653C45.9494 29.0568 43.1723 28.003 40.2957 28.003Z"
          fill="#D7D7D8"/>
</svg>
