<svg width="95" height="75" viewBox="0 0 95 75" fill="none" xmlns="http://www.w3.org/2000/svg">
    <path d="M6.10352e-05 7.74908C6.10352e-05 3.77085 3.68191 0.814384 7.56626 1.67356L25.8124 5.7094C26.2537 5.807 26.7043 5.85624 27.1562 5.85624H87.8378C91.2743 5.85624 94.0601 8.64209 94.0601 12.0786V68.7776C94.0601 72.2142 91.2743 75 87.8378 75H6.22243C2.78591 75 6.10352e-05 72.2142 6.10352e-05 68.7776V7.74908Z"
          fill="#CCCCCC" fill-opacity="0.752941"/>
    <path d="M-6.10352e-05 7.21367C-6.10352e-05 4.92266 1.85717 3.06543 4.14818 3.06543H21.8967C22.7131 3.06543 23.5113 3.30632 24.1914 3.75792L39.0814 13.6452C39.7615 14.0968 40.5597 14.3377 41.3761 14.3377H89.9895C92.2805 14.3377 94.1377 12.4805 94.1377 10.1895V3.06543V70.5295C94.1377 72.8205 92.2805 74.6777 89.9895 74.6777H4.14818C1.85717 74.6777 -6.10352e-05 72.8205 -6.10352e-05 70.5295V7.21367Z"
          fill="#24292F"/>
    <g clip-path="url(#clip0_302_539)">
        <path d="M29.1214 32.6658C29.1214 31.2264 30.2897 30.0581 31.7291 30.0581H62.2768C63.7163 30.0581 64.8845 31.2264 64.8845 32.6658V57.253C64.8845 57.9446 64.6098 58.6079 64.1207 59.0969C63.6317 59.586 62.9684 59.8607 62.2768 59.8607H31.7291C31.0375 59.8607 30.3742 59.586 29.8852 59.0969C29.3961 58.6079 29.1214 57.9446 29.1214 57.253V32.6658ZM62.6493 37.5088H31.3566V57.253C31.3566 57.4586 31.5235 57.6255 31.7291 57.6255H62.2768C62.3756 57.6255 62.4703 57.5863 62.5402 57.5164C62.6101 57.4465 62.6493 57.3518 62.6493 57.253V37.5088ZM47.748 32.2933V35.2736H62.6493V32.6658C62.6493 32.567 62.6101 32.4723 62.5402 32.4024C62.4703 32.3325 62.3756 32.2933 62.2768 32.2933H47.748ZM39.5523 32.2933V35.2736H45.5128V32.2933H39.5523ZM31.7291 32.2933C31.6303 32.2933 31.5356 32.3325 31.4657 32.4024C31.3958 32.4723 31.3566 32.567 31.3566 32.6658V35.2736H37.3171V32.2933H31.7291Z"
              fill="white"/>
    </g>
    <defs>
        <clipPath id="clip0_302_539">
            <rect width="35.7631" height="35.7631" fill="white" transform="translate(29.1214 27.0776)"/>
        </clipPath>
    </defs>
</svg>
