<svg width="95" height="75" viewBox="0 0 95 75" fill="none" xmlns="http://www.w3.org/2000/svg">
    <path d="M0 8.09932C0 3.94128 3.84827 0.851192 7.90818 1.7492L25.7823 5.70276C26.2436 5.80478 26.7145 5.85624 27.1869 5.85624H87.5565C91.1483 5.85624 94.0601 8.768 94.0601 12.3598V68.4964C94.0601 72.0882 91.1483 75 87.5565 75H6.5036C2.91176 75 0 72.0882 0 68.4964V8.09932Z"
          fill="#CCCCCC" fill-opacity="0.752941"/>
    <path d="M0 7.24833C0 4.85377 1.94117 2.9126 4.33573 2.9126H21.8402C22.6935 2.9126 23.5278 3.16437 24.2386 3.63639L39.0343 13.4611C39.7451 13.9331 40.5794 14.1849 41.4327 14.1849H89.802C92.1966 14.1849 94.1377 12.2437 94.1377 9.84916V2.9126V70.1891C94.1377 72.5837 92.1966 74.5249 89.802 74.5249H4.33573C1.94117 74.5249 0 72.5837 0 70.1891V7.24833Z"
          fill="#24292F"/>
    <g clip-path="url(#clip0_302_583)">
        <path d="M30.399 33.0746C30.399 31.7327 31.4882 30.6436 32.8301 30.6436H61.3084C62.6504 30.6436 63.7395 31.7327 63.7395 33.0746V53.2178C63.7395 53.8626 63.4834 54.4809 63.0274 54.9369C62.5715 55.3928 61.9532 55.6489 61.3084 55.6489H32.8301C32.1854 55.6489 31.567 55.3928 31.1111 54.9369C30.6552 54.4809 30.399 53.8626 30.399 53.2178V33.0746ZM32.8301 32.7273C32.738 32.7273 32.6497 32.7639 32.5845 32.8291C32.5194 32.8942 32.4828 32.9825 32.4828 33.0746V53.2178C32.4828 53.4095 32.6384 53.5651 32.8301 53.5651H61.3084C61.4005 53.5651 61.4889 53.5285 61.554 53.4634C61.6191 53.3983 61.6557 53.3099 61.6557 53.2178V33.0746C61.6557 32.9825 61.6191 32.8942 61.554 32.8291C61.4889 32.7639 61.4005 32.7273 61.3084 32.7273H32.8301Z"
              fill="white"/>
        <path d="M42.9017 48.1252V38.1676C42.9019 38.043 42.9357 37.9207 42.9993 37.8137C43.063 37.7066 43.1543 37.6186 43.2637 37.5589C43.3731 37.4993 43.4965 37.4701 43.621 37.4746C43.7455 37.479 43.8665 37.5168 43.9714 37.5841L51.7175 42.5616C51.8156 42.6244 51.8963 42.7109 51.9522 42.8131C52.0081 42.9153 52.0374 43.0299 52.0374 43.1464C52.0374 43.2629 52.0081 43.3775 51.9522 43.4797C51.8963 43.5819 51.8156 43.6684 51.7175 43.7312L43.9714 48.7101C43.8665 48.7774 43.7455 48.8152 43.621 48.8196C43.4965 48.8241 43.3731 48.7949 43.2637 48.7353C43.1543 48.6756 43.063 48.5876 42.9993 48.4805C42.9357 48.3735 42.9019 48.2512 42.9017 48.1266V48.1252Z"
              fill="white"/>
    </g>
    <defs>
        <clipPath id="clip0_302_583">
            <rect width="33.3404" height="33.3405" fill="white" transform="translate(30.3989 26.4761)"/>
        </clipPath>
    </defs>
</svg>
