<svg width="178" height="40" viewBox="0 0 178 40" fill="none" xmlns="http://www.w3.org/2000/svg">
    <path d="M34.6844 39.2769H25.2401L9.44431 15.3908L9.4443 39.2769H0V0.551642H9.44431L25.2401 24.5481V0.551644L34.6844 0.551642V39.2769Z"
          fill="#748081"/>
    <path d="M50.9746 8.10914L50.9746 15.9424H63.6222V23.2241H50.9746V31.7194H65.2792V39.2769H41.5303L41.5303 0.551642H65.2792V8.10914L50.9746 8.10914Z"
          fill="#748081"/>
    <path d="M95.1594 39.2769L87.2615 27.4166L80.3025 39.2769H69.5879L82.0147 19.5833L69.3118 0.551642H80.3026L88.09 12.2464L94.9385 0.551642H105.653L93.3368 20.0798L106.15 39.2769L95.1594 39.2769Z"
          fill="#748081"/>
    <path d="M120.17 0.551642L120.17 23.7206C120.17 26.0375 120.741 27.8211 121.882 29.0715C123.023 30.3219 124.699 30.9471 126.908 30.9471C129.117 30.9471 130.811 30.3219 131.989 29.0715C133.167 27.8211 133.757 26.0375 133.757 23.7206L133.756 0.551642H143.201V23.6654C143.201 27.1224 142.464 30.0461 140.992 32.4365C139.519 34.827 137.531 36.629 135.027 37.8426C132.56 39.0562 129.798 39.663 126.742 39.663C123.686 39.663 120.943 39.0746 118.513 37.8978C116.12 36.6842 114.224 34.8821 112.824 32.4917C111.425 30.0645 110.726 27.1224 110.726 23.6654L110.726 0.551642H120.17Z"
          fill="#748081"/>
    <path d="M163.861 39.663C161.026 39.663 158.485 39.2033 156.239 38.2839C153.993 37.3645 152.189 36.0038 150.827 34.2018C149.501 32.3998 148.802 30.23 148.728 27.6924H158.78C158.927 29.1267 159.424 30.23 160.271 31.0023C161.118 31.7378 162.223 32.1056 163.585 32.1056C164.984 32.1056 166.089 31.793 166.899 31.1678C167.709 30.5058 168.114 29.6048 168.114 28.4647C168.114 27.5085 167.782 26.7178 167.12 26.0927C166.494 25.4675 165.702 24.9526 164.745 24.5481C163.824 24.1435 162.499 23.6838 160.768 23.169C158.264 22.3967 156.221 21.6244 154.638 20.8521C153.055 20.0798 151.692 18.9397 150.551 17.4319C149.409 15.9241 148.839 13.9565 148.839 11.5293C148.839 7.92525 150.146 5.11188 152.76 3.08919C155.374 1.02973 158.78 0 162.977 0C167.249 0 170.691 1.02973 173.305 3.08919C175.92 5.11188 177.319 7.94364 177.503 11.5845H167.285C167.212 10.3341 166.751 9.35952 165.905 8.66078C165.058 7.92525 163.972 7.55749 162.646 7.55749C161.505 7.55749 160.584 7.87009 159.885 8.49528C159.185 9.0837 158.835 9.94794 158.835 11.088C158.835 12.3384 159.424 13.313 160.603 14.0117C161.781 14.7104 163.622 15.4644 166.126 16.2734C168.629 17.1193 170.654 17.9284 172.201 18.7007C173.784 19.473 175.146 20.5946 176.288 22.0657C177.429 23.5367 178 25.4307 178 27.7476C178 29.9541 177.429 31.9584 176.288 33.7605C175.183 35.5625 173.563 36.9968 171.428 38.0633C169.292 39.1298 166.77 39.663 163.861 39.663Z"
          fill="#748081"/>
    <path d="M34.6844 39.2769H25.2401L9.44431 15.3908L9.4443 39.2769H0V0.551642H9.44431L25.2401 24.5481V0.551644L34.6844 0.551642V39.2769Z"
          fill="#D9D9D9"/>
    <path d="M50.9746 8.10914L50.9746 15.9424H63.6222V23.2241H50.9746V31.7194H65.2792V39.2769H41.5303L41.5303 0.551642H65.2792V8.10914L50.9746 8.10914Z"
          fill="#D9D9D9"/>
    <path d="M120.17 0.551642L120.17 23.7206C120.17 26.0375 120.741 27.8211 121.882 29.0715C123.023 30.3219 124.699 30.9471 126.908 30.9471C129.117 30.9471 130.811 30.3219 131.989 29.0715C133.167 27.8211 133.757 26.0375 133.757 23.7206L133.756 0.551642H143.201V23.6654C143.201 27.1224 142.464 30.0461 140.992 32.4365C139.519 34.827 137.531 36.629 135.027 37.8426C132.56 39.0562 129.798 39.663 126.742 39.663C123.686 39.663 120.943 39.0746 118.513 37.8978C116.12 36.6842 114.224 34.8821 112.824 32.4917C111.425 30.0645 110.726 27.1224 110.726 23.6654L110.726 0.551642H120.17Z"
          fill="#D9D9D9"/>
    <path d="M163.861 39.663C161.026 39.663 158.485 39.2033 156.239 38.2839C153.993 37.3645 152.189 36.0038 150.827 34.2018C149.501 32.3998 148.802 30.23 148.728 27.6924H158.78C158.927 29.1267 159.424 30.23 160.271 31.0023C161.118 31.7378 162.223 32.1056 163.585 32.1056C164.984 32.1056 166.089 31.793 166.899 31.1678C167.709 30.5058 168.114 29.6048 168.114 28.4647C168.114 27.5085 167.782 26.7178 167.12 26.0927C166.494 25.4675 165.702 24.9526 164.745 24.5481C163.824 24.1435 162.499 23.6838 160.768 23.169C158.264 22.3967 156.221 21.6244 154.638 20.8521C153.055 20.0798 151.692 18.9397 150.551 17.4319C149.409 15.9241 148.839 13.9565 148.839 11.5293C148.839 7.92525 150.146 5.11188 152.76 3.08919C155.374 1.02973 158.78 0 162.977 0C167.249 0 170.691 1.02973 173.305 3.08919C175.92 5.11188 177.319 7.94364 177.503 11.5845H167.285C167.212 10.3341 166.751 9.35952 165.905 8.66078C165.058 7.92525 163.972 7.55749 162.646 7.55749C161.505 7.55749 160.584 7.87009 159.885 8.49528C159.185 9.0837 158.835 9.94794 158.835 11.088C158.835 12.3384 159.424 13.313 160.603 14.0117C161.781 14.7104 163.622 15.4644 166.126 16.2734C168.629 17.1193 170.654 17.9284 172.201 18.7007C173.784 19.473 175.146 20.5946 176.288 22.0657C177.429 23.5367 178 25.4307 178 27.7476C178 29.9541 177.429 31.9584 176.288 33.7605C175.183 35.5625 173.563 36.9968 171.428 38.0633C169.292 39.1298 166.77 39.663 163.861 39.663Z"
          fill="#D9D9D9"/>
</svg>
