<svg width="75" height="75" viewBox="0 0 75 75" fill="none" xmlns="http://www.w3.org/2000/svg">
    <path d="M72.0177 52.1305C63.9375 71.1941 41.9331 80.0979 22.8695 72.0177C3.80588 63.9375 -5.09792 41.9331 2.9823 22.8695C11.0625 3.80587 33.0669 -5.09792 52.1305 2.9823C71.1941 11.0625 80.0979 33.0669 72.0177 52.1305Z"
          fill="black"/>
    <path d="M47.0712 41.2674C44.9834 46.1931 39.2978 48.4937 34.3721 46.4059C29.4463 44.3181 27.1457 38.6325 29.2335 33.7067C31.3213 28.781 37.0069 26.4804 41.9327 28.5682C46.8584 30.656 49.159 36.3416 47.0712 41.2674Z"
          fill="#E1AF00"/>
    <path d="M40 38.3228C39.5263 39.4403 38.2363 39.9623 37.1188 39.4886C36.0012 39.0149 35.4792 37.7249 35.9529 36.6074C36.4266 35.4898 37.7166 34.9679 38.8341 35.4415C39.9517 35.9152 40.4737 37.2052 40 38.3228Z"
          fill="#FEFEFE"/>
</svg>
