<svg width="75" height="75" viewBox="0 0 75 75" fill="#fff" xmlns="http://www.w3.org/2000/svg">
    <path d="M0 7.5C0 3.35787 3.35786 0 7.5 0L67.5 0C71.6421 0 75 3.35786 75 7.5V67.5C75 71.6421 71.6421 75 67.5 75H7.5C3.35787 75 0 71.6421 0 67.5L0 7.5Z"
          fill="#F6F8FA" stroke="#c4c4c4" fill-opacity=".9"/>
    <path d="M42.8479 33.1197C44.6366 30.5267 48.4675 30.5267 50.2562 33.1198L71.5631 64.0073C73.6224 66.9925 71.4855 71.0625 67.8589 71.0625H25.2452C21.6187 71.0625 19.4818 66.9925 21.541 64.0073L42.8479 33.1197Z"
          fill="#83AACE" fill-opacity="0.82"/>
    <path d="M25.6553 37.0234C27.4556 34.6328 31.0444 34.6328 32.8447 37.0234L53.051 63.8555C55.2841 66.8209 53.1685 71.0625 49.4563 71.0625H9.04372C5.33145 71.0625 3.21585 66.8209 5.44902 63.8554L25.6553 37.0234Z"
          fill="#0075E1" fill-opacity="0.82"/>
    <path d="M30.75 21C30.75 24.7279 27.7279 27.75 24 27.75C20.2721 27.75 17.25 24.7279 17.25 21C17.25 17.2721 20.2721 14.25 24 14.25C27.7279 14.25 30.75 17.2721 30.75 21Z"
          fill="#E1AF00"/>
</svg>
