<svg width="55" height="75" viewBox="0 0 55 75" fill="none" xmlns="http://www.w3.org/2000/svg">
    <rect x="0.00213623" width="54.0693" height="74.9993" rx="1.53216" fill="#3C3838"/>
    <rect x="8.72211" y="0.000488281" width="36.6276" height="74.9993" fill="#0A0A0A" fill-opacity="0.54"/>
    <rect x="8.72174" y="36.6274" width="36.6276" height="12.2092" fill="#0A0A0A" fill-opacity="0.54"/>
    <rect x="8.72168" y="64.5337" width="36.6276" height="6.97668" fill="#0A0A0A" fill-opacity="0.54"/>
    <rect x="8.72174" y="13.9531" width="36.6276" height="10.465" fill="#0A0A0A" fill-opacity="0.54"/>
    <rect x="0.00109863" y="62.79" width="8.72085" height="5.23251" fill="#D9D9D9"/>
    <rect x="45.3484" y="64.5332" width="8.72085" height="5.23251" fill="#D9D9D9"/>
    <rect y="50.5811" width="8.72085" height="5.23251" fill="#D9D9D9"/>
    <rect x="45.349" y="52.3252" width="8.72085" height="5.23251" fill="#D9D9D9"/>
    <rect x="0.000366211" y="38.3716" width="8.72085" height="5.23251" fill="#D9D9D9"/>
    <rect x="45.3484" y="40.1162" width="8.72085" height="5.23251" fill="#D9D9D9"/>
    <rect x="0.00109863" y="26.1626" width="8.72085" height="5.23251" fill="#D9D9D9"/>
    <rect x="45.3483" y="27.9067" width="8.72085" height="5.23251" fill="#D9D9D9"/>
    <rect x="0.000732422" y="13.9536" width="8.72085" height="5.23251" fill="#D9D9D9"/>
    <rect x="45.349" y="15.6968" width="8.72085" height="5.23251" fill="#D9D9D9"/>
    <rect x="0.000366211" y="1.74414" width="8.72085" height="5.23251" fill="#D9D9D9"/>
    <rect x="45.3486" y="3.48779" width="8.72085" height="5.23251" fill="#D9D9D9"/>
</svg>
